<svg width="97" height="76" viewBox="0 0 97 76" fill="none" xmlns="http://www.w3.org/2000/svg">
<g id="Group 274">
<g id="Group 275">
<path id="Vector" d="M92.15 38.9289C92.15 15.7489 71.489 0 48.5 0C25.7535 0 4.85 15.4111 4.85 39.1822C1.94 40.6178 0 43.32 0 46.4444V54.8889C0 59.5333 4.365 63.3333 9.7 63.3333H14.55V37.5778C14.55 21.2378 29.7305 8.02222 48.5 8.02222C67.2695 8.02222 82.45 21.2378 82.45 37.5778V67.5556H43.65V76H82.45C87.785 76 92.15 72.2 92.15 67.5556V62.4044C95.0115 61.0956 97 58.52 97 55.48V45.7689C97 42.8133 95.0115 40.2378 92.15 38.9289Z" fill="black"/>
<path id="Vector_2" d="M33.9496 46.4444C36.6282 46.4444 38.7996 44.5541 38.7996 42.2222C38.7996 39.8904 36.6282 38 33.9496 38C31.271 38 29.0996 39.8904 29.0996 42.2222C29.0996 44.5541 31.271 46.4444 33.9496 46.4444Z" fill="black"/>
<path id="Vector_3" d="M63.0512 46.4444C65.7298 46.4444 67.9012 44.5541 67.9012 42.2222C67.9012 39.8904 65.7298 38 63.0512 38C60.3726 38 58.2012 39.8904 58.2012 42.2222C58.2012 44.5541 60.3726 46.4444 63.0512 46.4444Z" fill="black"/>
<path id="Vector_4" d="M77.6015 33.9018C76.4451 27.966 72.9136 22.5777 67.6321 18.6908C62.3507 14.8039 55.6599 12.669 48.744 12.6641C34.0485 12.6641 18.2375 23.2618 19.4985 39.8974C25.4792 37.7668 30.7614 34.381 34.8741 30.0418C38.9869 25.7026 41.8023 20.5449 43.0695 15.0285C49.423 26.133 62.4695 33.7752 77.6015 33.9018Z" fill="black"/>
</g>
</g>
</svg>
