<svg width="97" height="76" viewBox="0 0 97 76" fill="none" xmlns="http://www.w3.org/2000/svg">
<path id="Vector" d="M24.2527 1.06347C29.806 4.23358 34.1301 8.56061 37.8226 12.7012L39.97 15.152L41.996 17.4925C43.0094 18.6522 43.4427 20.0634 43.2133 21.4572C42.984 22.851 42.108 24.13 40.7522 25.0505L31.2733 30.5649C30.8153 30.8239 30.493 31.2044 30.3661 31.6355C30.2392 32.0667 30.3164 32.5193 30.5834 32.9092C32.7308 35.9651 36.5496 40.5167 40.9223 43.9418C45.2998 47.3669 51.3826 50.556 55.5561 52.4284C56.0794 52.6585 56.6953 52.7228 57.2773 52.6081C57.8592 52.4935 58.363 52.2085 58.685 51.8119L64.8553 44.4555C65.9897 43.2752 67.6631 42.4845 69.5252 42.249C71.3872 42.0134 73.2933 42.3514 74.8444 43.1921L78.0656 44.9389C84.0853 48.2117 90.5519 51.9298 95.4979 56.8886C96.2823 57.6794 96.7812 58.6207 96.9428 59.6141C97.1043 60.6075 96.9224 61.6166 96.4161 62.5362C92.3496 69.9686 82.0593 76.2974 71.356 75.9892L69.8984 75.9245L68.7664 75.8484L67.5129 75.7342L66.1476 75.5896L64.6658 75.3993C64.4063 75.3627 64.1472 75.3246 63.8884 75.2851L62.256 75.0111C61.9705 74.962 61.6854 74.9113 61.4009 74.8589L59.6227 74.5012L57.7521 74.0826L55.799 73.5878C46.8302 71.2055 35.4467 66.5245 23.7669 57.3757C12.0919 48.2308 6.11594 39.3141 3.07452 32.2889L2.44291 30.759L1.90847 29.2938L1.45178 27.9009L1.07281 26.5842C0.963354 26.1718 0.861315 25.7582 0.766726 25.3435L0.523801 24.1828L0.329461 23.1134L0.188564 22.1316L0.0913938 21.2449L0.0136581 20.1032C-0.379881 11.7459 7.78727 3.62848 17.2322 0.458369C18.369 0.0738716 19.6138 -0.0725182 20.8447 0.0335643C22.0755 0.139647 23.2499 0.494557 24.2527 1.06347ZM63.7767 14.7448L64.3403 14.7943C67.8768 15.2829 71.1251 16.636 73.6195 18.6596C76.1139 20.6832 77.7264 23.2734 78.2259 26.059C78.404 27.0225 78.1039 28.0029 77.3873 28.7983C76.6707 29.5938 75.5922 30.1439 74.3736 30.3355C73.155 30.5271 71.889 30.3456 70.8361 29.8283C69.7831 29.311 69.0233 28.4973 68.7129 27.5546L68.6012 27.117C68.4057 26.0251 67.8108 25.001 66.8882 24.1683C65.9657 23.3356 64.7551 22.73 63.4026 22.4246L62.6495 22.2914C61.4295 22.122 60.3383 21.594 59.5989 20.8152C58.8595 20.0365 58.5279 19.0659 58.6718 18.1019C58.8158 17.138 59.4245 16.2536 60.3734 15.6295C61.3223 15.0055 62.5397 14.689 63.7767 14.7448ZM63.8156 3.17561C71.5469 3.17561 78.9616 5.58132 84.4285 9.86351C89.8953 14.1457 92.9666 19.9536 92.9666 26.0095C92.9652 26.9795 92.4911 27.9125 91.641 28.6178C90.7909 29.3231 89.629 29.7476 88.3928 29.8044C87.1566 29.8613 85.9394 29.5462 84.9897 28.9237C84.0401 28.3011 83.4299 27.418 83.2836 26.4548L83.2496 26.0095C83.2514 22.1446 81.3753 18.424 78.0023 15.6031C74.6293 12.7822 70.0123 11.0725 65.0885 10.8212L63.8156 10.7869C62.527 10.7869 61.2912 10.386 60.3801 9.67226C59.4689 8.95856 58.9571 7.99058 58.9571 6.98126C58.9571 5.97194 59.4689 5.00395 60.3801 4.29026C61.2912 3.57656 62.527 3.17561 63.8156 3.17561Z" fill="black"/>
</svg>
